<svg width="86" height="86" viewBox="0 0 86 86" fill="none" xmlns="http://www.w3.org/2000/svg">
<circle cx="43" cy="43" r="43" fill="#2E4458"/>
<path d="M60.9168 44.5406C60.9168 48.6436 58.8027 52.2806 55.5418 54.574L53.141 59.8594C52.5856 61.0598 50.9731 61.2927 50.131 60.2715L47.4793 57.0823C44.1468 57.0823 41.0831 55.9536 38.7539 54.0723L39.8289 52.8002C48.1064 52.1731 54.646 45.6156 54.646 37.6248C54.646 36.2631 54.4489 34.9194 54.0906 33.6294C58.1577 35.7794 60.9168 39.8644 60.9168 44.5406Z" fill="white"/>
<path d="M50.7048 32.3756C48.6086 28.0756 43.9323 25.0835 38.5215 25.0835C31.104 25.0835 25.084 30.6914 25.084 37.6252C25.084 41.7281 27.1982 45.3652 30.459 47.6585L32.8598 52.9439C33.4152 54.1443 35.0277 54.3593 35.8698 53.356L36.8552 52.1735L38.5215 50.1668C45.939 50.1668 51.959 44.5589 51.959 37.6252C51.959 35.7439 51.5111 33.9702 50.7048 32.3756ZM43.0006 38.9689H34.0423C33.3077 38.9689 32.6986 38.3597 32.6986 37.6252C32.6986 36.8906 33.3077 36.2814 34.0423 36.2814H43.0006C43.7352 36.2814 44.3444 36.8906 44.3444 37.6252C44.3444 38.3597 43.7352 38.9689 43.0006 38.9689Z" fill="white"/>
</svg>
