<svg width="359" height="436" viewBox="0 0 359 436" fill="none" xmlns="http://www.w3.org/2000/svg">
<mask id="path-1-inside-1_1127_984" fill="white">
<path fill-rule="evenodd" clip-rule="evenodd" d="M209.175 0H35C15.67 0 0 15.67 0 35V374C0 393.33 15.67 409 35 409H285.766C305.096 409 320.766 393.33 320.766 374V111.591L209.175 0Z"/>
</mask>
<path fill-rule="evenodd" clip-rule="evenodd" d="M209.175 0H35C15.67 0 0 15.67 0 35V374C0 393.33 15.67 409 35 409H285.766C305.096 409 320.766 393.33 320.766 374V111.591L209.175 0Z" fill="#3C87FE"/>
<path d="M209.175 0L223.317 -14.1421L217.459 -20H209.175V0ZM320.766 111.591H340.766V103.307L334.908 97.4492L320.766 111.591ZM35 20H209.175V-20H35V20ZM20 35C20 26.7157 26.7157 20 35 20V-20C4.62434 -20 -20 4.62434 -20 35H20ZM20 374V35H-20V374H20ZM35 389C26.7157 389 20 382.284 20 374H-20C-20 404.376 4.62426 429 35 429V389ZM285.766 389H35V429H285.766V389ZM300.766 374C300.766 382.284 294.051 389 285.766 389V429C316.142 429 340.766 404.376 340.766 374H300.766ZM300.766 111.591V374H340.766V111.591H300.766ZM334.908 97.4492L223.317 -14.1421L195.033 14.1421L306.624 125.733L334.908 97.4492Z" fill="white" mask="url(#path-1-inside-1_1127_984)"/>
<mask id="path-3-inside-2_1127_984" fill="white">
<path fill-rule="evenodd" clip-rule="evenodd" d="M320.766 123.16H237.445C216.458 123.16 199.445 106.146 199.445 85.1596V0H209.175L320.766 111.591V123.16Z"/>
</mask>
<path fill-rule="evenodd" clip-rule="evenodd" d="M320.766 123.16H237.445C216.458 123.16 199.445 106.146 199.445 85.1596V0H209.175L320.766 111.591V123.16Z" fill="#3C87FE"/>
<path d="M320.766 123.16V143.16H340.766V123.16H320.766ZM199.445 0V-20H179.445V0H199.445ZM209.175 0L223.317 -14.1421L217.459 -20H209.175V0ZM320.766 111.591H340.766V103.307L334.908 97.4492L320.766 111.591ZM320.766 103.16H237.445V143.16H320.766V103.16ZM237.445 103.16C227.504 103.16 219.445 95.1007 219.445 85.1596H179.445C179.445 117.192 205.413 143.16 237.445 143.16V103.16ZM219.445 85.1596V0H179.445V85.1596H219.445ZM209.175 -20H199.445V20H209.175V-20ZM334.908 97.4492L223.317 -14.1421L195.033 14.1421L306.624 125.733L334.908 97.4492ZM340.766 123.16V111.591H300.766V123.16H340.766Z" fill="white" mask="url(#path-3-inside-2_1127_984)"/>
<path d="M68.7656 123H151.766" stroke="white" stroke-width="20" stroke-linecap="round"/>
<path d="M68.7656 175H248.766" stroke="white" stroke-width="20" stroke-linecap="round"/>
<path d="M68.7656 227H248.766" stroke="white" stroke-width="20" stroke-linecap="round"/>
<circle cx="271.266" cy="348.5" r="77.5" fill="#3C87FE" stroke="white" stroke-width="20"/>
<path d="M271.766 382L271.766 316" stroke="white" stroke-width="15" stroke-linecap="round"/>
<path d="M295.82 340L271.82 316" stroke="white" stroke-width="15" stroke-linecap="round"/>
<path d="M247.387 340L271.387 316" stroke="white" stroke-width="15" stroke-linecap="round"/>
</svg>
